Coordinates
version=1
nRows=43
nColumns=12
inDegrees=yes

Units are S.I. units (second, meters, Newtons, ...)
Angles are in degrees

endheader
time	SC_y	SC_z	SC_x	AC_y	AC_z	AC_x	GH_y	GH_z	GH_yy	EL_x	PS_y
       0.0              -53.97         -3.864          9.533          69.74        -0.5579           1.02         -158.1          58.96          39.62          83.24          38.85
    0.0447              -53.96         -3.858          9.543          69.74        -0.5573           1.02         -158.0          58.96          39.61          83.24          38.85
    0.0894              -53.96         -3.852          9.553          69.73        -0.5567          1.019         -158.0          58.96          39.59          83.25          38.85
    0.1341              -53.95         -3.845          9.565          69.72         -0.556          1.019         -157.9          58.95          39.58          83.26          38.85
    0.1788              -53.95         -3.838          9.576          69.72        -0.5553          1.018         -157.9          58.95          39.56          83.27          38.86
    0.2235              -53.94         -3.831          9.589          69.71        -0.5546          1.017         -157.8          58.94          39.55          83.28          38.86
    0.2682              -53.93         -3.823          9.602           69.7        -0.5538          1.016         -157.8          58.94          39.53          83.29          38.86
    0.3129              -53.93         -3.815          9.617          69.69        -0.5529          1.016         -157.7          58.93          39.51           83.3          38.87
    0.3576              -53.92         -3.806          9.632          69.69         -0.552          1.015         -157.7          58.92          39.49          83.32          38.87
    0.4023              -53.91         -3.796          9.648          69.68        -0.5511          1.014         -157.6          58.92          39.47          83.33          38.88
     0.447               -53.9         -3.786          9.666          69.67          -0.55          1.013         -157.5          58.91          39.45          83.35          38.88
    0.4917              -53.89         -3.775          9.685          69.65        -0.5489          1.012         -157.4           58.9          39.42          83.36          38.89
    0.5364              -53.88         -3.763          9.706          69.64        -0.5477           1.01         -157.3          58.89           39.4          83.38          38.89
    0.5811              -53.87          -3.75          9.728          69.63        -0.5464          1.009         -157.2          58.88          39.37           83.4           38.9
    0.6258              -53.86         -3.736          9.752          69.62         -0.545          1.008         -157.1          58.87          39.34          83.42          38.91
    0.6705              -53.84         -3.721          9.778           69.6        -0.5434          1.006         -157.0          58.86           39.3          83.44          38.91
    0.7152              -53.83         -3.705          9.806          69.58        -0.5418          1.005         -156.9          58.85          39.27          83.46          38.92
    0.7599              -53.81         -3.687          9.837          69.57          -0.54          1.003         -156.8          58.84          39.23          83.48          38.93
    0.8046              -53.79         -3.667           9.87          69.55         -0.538          1.001         -156.6          58.82          39.18          83.51          38.94
    0.8493              -53.77         -3.646          9.907          69.53        -0.5358         0.9987         -156.5          58.81          39.14          83.54          38.95
     0.894              -53.75         -3.622          9.948           69.5        -0.5334         0.9963         -156.3          58.79          39.08          83.58          38.96
    0.9387              -53.73         -3.596          9.992          69.48        -0.5308         0.9937         -156.1          58.77          39.03          83.61          38.97
    0.9834              -53.71         -3.567          10.04          69.45        -0.5279         0.9909         -155.9          58.75          38.96          83.65          38.98
     1.028              -53.68         -3.536           10.1          69.42        -0.5247         0.9877         -155.7          58.73          38.89           83.7           39.0
     1.073              -53.65           -3.5          10.16          69.38        -0.5211         0.9842         -155.4           58.7          38.81          83.75          39.02
     1.118              -53.61         -3.461          10.22          69.34        -0.5171         0.9803         -155.2          58.68          38.73           83.8          39.03
     1.162              -53.57         -3.417           10.3           69.3        -0.5127         0.9758         -154.8          58.64          38.63          83.86          39.06
     1.207              -53.53         -3.367          10.38          69.25        -0.5076         0.9709         -154.5          58.61          38.52          83.93          39.08
     1.252              -53.48         -3.311          10.48          69.19         -0.502         0.9653         -154.1          58.57          38.39          84.01          39.11
     1.296              -53.42         -3.248          10.59          69.13        -0.4955         0.9589         -153.6          58.52          38.25           84.1          39.14
     1.341              -53.36         -3.175          10.71          69.06        -0.4882         0.9517         -153.1          58.47          38.09           84.2          39.17
     1.386              -53.28         -3.092          10.86          68.97        -0.4797         0.9434         -152.5          58.41          37.91          84.32          39.21
      1.43               -53.2         -2.996          11.02          68.88          -0.47         0.9337         -151.8          58.34          37.69          84.45          39.25
     1.475               -53.1         -2.884          11.21          68.77        -0.4587         0.9226         -151.0          58.26          37.44          84.61          39.31
      1.52              -52.98         -2.753          11.44          68.64        -0.4454         0.9095         -150.0          58.17          37.15          84.79          39.37
     1.565              -52.85         -2.599           11.7          68.48        -0.4298         0.8941         -148.9          58.06          36.81          85.01          39.44
     1.609              -52.68         -2.415          12.02           68.3        -0.4113         0.8758         -147.6          57.92          36.41          85.27          39.53
     1.654              -52.49         -2.196           12.4          68.08        -0.3891         0.8538         -146.0          57.77          35.92          85.58          39.63
     1.699              -52.25          -1.93          12.85          67.81        -0.3622         0.8273         -144.1          57.57          35.33          85.95          39.76
     1.743              -51.96         -1.605          13.41          67.49        -0.3293         0.7948         -141.7          57.34          34.61           86.4          39.91
     1.788              -51.61         -1.205           14.1          67.09        -0.2887         0.7548         -138.8          57.05          33.72          86.97           40.1
     1.833              -51.17        -0.7049          14.95          66.59        -0.2382         0.7049         -135.2          56.69          32.61          87.67          40.33
     1.877              -50.61       -0.07545          16.03          65.96        -0.1744          0.642         -130.6          56.24          31.21          88.55          40.63
